<?xml version="1.0" encoding="utf-8"?>
<!-- Generator: Adobe Illustrator 23.0.6, SVG Export Plug-In . SVG Version: 6.00 Build 0)  -->
<svg version="1.1" id="Layer_1" xmlns="http://www.w3.org/2000/svg" xmlns:xlink="http://www.w3.org/1999/xlink" x="0px" y="0px"
	 viewBox="0 0 292.91 97.43" style="enable-background:new 0 0 292.91 97.43;" xml:space="preserve">
<g>
	<path d="M45.08,32.27h16.5V56.1c-3.33,2.31-7.19,4.08-11.59,5.31c-4.4,1.23-8.72,1.85-12.96,1.85c-6.01,0-11.4-1.25-16.18-3.74
		c-4.78-2.5-8.52-5.98-11.23-10.47c-2.71-4.48-4.07-9.57-4.07-15.25c0-5.69,1.35-10.77,4.07-15.25c2.71-4.48,6.49-7.97,11.35-10.47
		c4.86-2.5,10.34-3.74,16.46-3.74c5.53,0,10.48,0.93,14.85,2.78c4.37,1.85,8.01,4.55,10.91,8.09L51.04,25.91
		c-3.54-4.13-7.76-6.2-12.64-6.2c-4.19,0-7.51,1.26-9.98,3.78c-2.47,2.52-3.7,5.96-3.7,10.3c0,4.24,1.22,7.65,3.66,10.22
		c2.44,2.58,5.7,3.86,9.78,3.86c2.42,0,4.72-0.46,6.92-1.37V32.27z"/>
	<path d="M76.48,56.26c-4.83-4.67-7.25-11.22-7.25-19.64V5.63h19v30.43c0,4.13,0.74,7.14,2.21,9.02c1.48,1.88,3.61,2.82,6.4,2.82
		c2.79,0,4.92-0.94,6.4-2.82c1.48-1.88,2.21-4.88,2.21-9.02V5.63h18.68v30.99c0,8.43-2.42,14.97-7.25,19.64s-11.57,7-20.21,7
		C88.04,63.27,81.31,60.93,76.48,56.26z"/>
	<path d="M132.83,5.63h19v41.62h25.44v14.73h-44.44V5.63z"/>
	<path d="M223.23,8.2c3.86,1.72,6.84,4.19,8.94,7.41c2.09,3.22,3.14,6.98,3.14,11.27c0,4.29-1.05,8.05-3.14,11.27
		c-2.09,3.22-5.07,5.69-8.94,7.41c-3.86,1.72-8.4,2.58-13.6,2.58h-8.13v13.85h-19V5.63h27.13C214.83,5.63,219.37,6.49,223.23,8.2z
		 M214.22,31.75c1.29-1.15,1.93-2.78,1.93-4.87c0-2.09-0.64-3.72-1.93-4.87c-1.29-1.15-3.22-1.73-5.8-1.73h-6.92v13.2h6.92
		C211,33.48,212.93,32.9,214.22,31.75z"/>
	<path d="M252.54,20.36h-16.5V5.63h52v14.73h-16.5v41.62h-19V20.36z"/>
</g>
<g>
	<path d="M10.71,91.37c-1.62-0.9-2.9-2.15-3.84-3.75c-0.93-1.59-1.4-3.38-1.4-5.37s0.47-3.78,1.4-5.37
		c0.93-1.59,2.21-2.84,3.84-3.75c1.62-0.9,3.45-1.36,5.47-1.36c1.49,0,2.87,0.24,4.13,0.72c1.26,0.48,2.33,1.19,3.22,2.14
		l-0.94,0.97c-1.65-1.63-3.77-2.45-6.34-2.45c-1.73,0-3.3,0.39-4.72,1.18c-1.42,0.79-2.53,1.87-3.33,3.26
		c-0.81,1.39-1.21,2.94-1.21,4.65s0.4,3.26,1.21,4.65s1.92,2.47,3.33,3.26c1.42,0.79,2.99,1.18,4.72,1.18
		c2.56,0,4.67-0.83,6.34-2.48l0.94,0.97c-0.89,0.94-1.96,1.66-3.23,2.15s-2.64,0.74-4.12,0.74C14.16,92.73,12.33,92.28,10.71,91.37z
		"/>
	<path d="M30.54,90.46c-1.45-1.51-2.17-3.73-2.17-6.64V71.93h1.5v11.83c0,2.54,0.58,4.44,1.74,5.69c1.16,1.26,2.84,1.89,5.04,1.89
		c2.18,0,3.85-0.63,5.02-1.89s1.74-3.16,1.74-5.69V71.93h1.5v11.89c0,2.91-0.73,5.12-2.18,6.64c-1.46,1.51-3.49,2.27-6.11,2.27
		C34.01,92.73,31.98,91.97,30.54,90.46z"/>
	<path d="M53.05,91.95c-1.37-0.52-2.43-1.19-3.2-2.02l0.68-1.12c0.73,0.77,1.71,1.39,2.94,1.87c1.23,0.48,2.52,0.72,3.88,0.72
		c1.97,0,3.45-0.37,4.46-1.12c1-0.75,1.5-1.72,1.5-2.92c0-0.92-0.27-1.66-0.8-2.21c-0.53-0.55-1.19-0.97-1.98-1.27
		c-0.79-0.29-1.85-0.6-3.19-0.91c-1.51-0.37-2.73-0.74-3.64-1.09c-0.91-0.35-1.69-0.9-2.33-1.64c-0.64-0.74-0.96-1.73-0.96-2.96
		c0-1,0.27-1.92,0.8-2.76c0.53-0.84,1.34-1.5,2.43-1.99c1.09-0.49,2.45-0.74,4.09-0.74c1.14,0,2.26,0.17,3.36,0.5
		c1.1,0.33,2.06,0.79,2.86,1.36l-0.56,1.21c-0.83-0.57-1.74-1-2.73-1.3c-0.99-0.29-1.97-0.44-2.94-0.44c-1.91,0-3.35,0.38-4.34,1.15
		c-0.98,0.77-1.48,1.76-1.48,2.98c0,0.92,0.27,1.66,0.8,2.21c0.53,0.55,1.19,0.97,1.98,1.27c0.79,0.29,1.86,0.61,3.22,0.94
		c1.51,0.37,2.72,0.74,3.63,1.09c0.9,0.35,1.68,0.89,2.32,1.61c0.64,0.72,0.96,1.69,0.96,2.91c0,1-0.27,1.92-0.81,2.74
		c-0.54,0.83-1.37,1.49-2.49,1.98s-2.5,0.74-4.13,0.74C55.86,92.73,54.42,92.47,53.05,91.95z"/>
	<path d="M73.57,73.29h-7.43v-1.36h16.37v1.36h-7.44v19.3h-1.5V73.29z"/>
	<path d="M89.21,91.36c-1.63-0.91-2.92-2.17-3.85-3.76c-0.93-1.59-1.4-3.37-1.4-5.34s0.47-3.75,1.4-5.34
		c0.93-1.59,2.22-2.85,3.85-3.76c1.63-0.91,3.46-1.37,5.49-1.37c2.03,0,3.85,0.45,5.49,1.36c1.63,0.91,2.92,2.15,3.85,3.75
		c0.93,1.59,1.4,3.38,1.4,5.37s-0.47,3.78-1.4,5.37c-0.93,1.59-2.22,2.84-3.85,3.75c-1.63,0.91-3.46,1.36-5.49,1.36
		C92.67,92.73,90.84,92.27,89.21,91.36z M99.38,90.16c1.4-0.79,2.5-1.87,3.3-3.26s1.21-2.94,1.21-4.65s-0.4-3.26-1.21-4.65
		c-0.81-1.39-1.91-2.47-3.3-3.26c-1.4-0.79-2.96-1.18-4.69-1.18c-1.73,0-3.3,0.39-4.71,1.18c-1.41,0.79-2.51,1.87-3.32,3.26
		c-0.81,1.39-1.21,2.94-1.21,4.65s0.4,3.26,1.21,4.65s1.91,2.47,3.32,3.26c1.41,0.79,2.97,1.18,4.71,1.18
		C96.42,91.34,97.99,90.95,99.38,90.16z"/>
	<path d="M130.19,92.58l-0.03-17.67l-8.64,14.93h-0.74l-8.64-14.87v17.61h-1.48V71.93h1.27l9.23,15.96l9.23-15.96h1.24l0.03,20.65
		H130.19z"/>
	<path d="M139.97,91.95c-1.37-0.52-2.43-1.19-3.2-2.02l0.68-1.12c0.73,0.77,1.71,1.39,2.94,1.87c1.23,0.48,2.52,0.72,3.88,0.72
		c1.97,0,3.45-0.37,4.46-1.12c1-0.75,1.5-1.72,1.5-2.92c0-0.92-0.26-1.66-0.8-2.21s-1.19-0.97-1.98-1.27
		c-0.79-0.29-1.85-0.6-3.19-0.91c-1.51-0.37-2.73-0.74-3.64-1.09c-0.91-0.35-1.69-0.9-2.33-1.64c-0.64-0.74-0.96-1.73-0.96-2.96
		c0-1,0.27-1.92,0.8-2.76c0.53-0.84,1.34-1.5,2.43-1.99c1.09-0.49,2.45-0.74,4.09-0.74c1.14,0,2.26,0.17,3.36,0.5
		c1.1,0.33,2.05,0.79,2.86,1.36l-0.56,1.21c-0.83-0.57-1.74-1-2.73-1.3s-1.97-0.44-2.94-0.44c-1.91,0-3.35,0.38-4.34,1.15
		c-0.98,0.77-1.48,1.76-1.48,2.98c0,0.92,0.27,1.66,0.8,2.21c0.53,0.55,1.19,0.97,1.98,1.27c0.79,0.29,1.86,0.61,3.22,0.94
		c1.51,0.37,2.72,0.74,3.63,1.09c0.9,0.35,1.68,0.89,2.32,1.61c0.64,0.72,0.96,1.69,0.96,2.91c0,1-0.27,1.92-0.81,2.74
		c-0.54,0.83-1.37,1.49-2.49,1.98c-1.12,0.49-2.5,0.74-4.13,0.74C142.77,92.73,141.33,92.47,139.97,91.95z"/>
	<path d="M183.94,92.58l-0.03-17.67l-8.64,14.93h-0.74l-8.65-14.87v17.61h-1.47V71.93h1.27l9.23,15.96l9.24-15.96h1.24l0.03,20.65
		H183.94z"/>
	<path d="M205.39,86.77h-11.98l-2.63,5.81h-1.62l9.5-20.65h1.5l9.5,20.65h-1.62L205.39,86.77z M204.83,85.5l-5.43-11.92L194,85.5
		H204.83z"/>
	<path d="M227.75,92.58l-4.93-6.9c-0.73,0.1-1.4,0.15-2.01,0.15h-5.9v6.76h-1.5V71.93h7.41c2.6,0,4.63,0.61,6.11,1.84
		c1.47,1.23,2.21,2.94,2.21,5.12c0,1.63-0.42,3-1.25,4.12c-0.84,1.11-2.03,1.89-3.58,2.35l5.16,7.23H227.75z M220.82,84.5
		c2.2,0,3.88-0.49,5.04-1.46s1.74-2.35,1.74-4.14s-0.58-3.17-1.74-4.15s-2.84-1.46-5.04-1.46h-5.9V84.5H220.82z"/>
	<path d="M240.79,82.4l-4.63,4.75v5.43h-1.5V71.93h1.5v13.28l12.89-13.28h1.83l-9.09,9.38l9.71,11.27h-1.83L240.79,82.4z"/>
	<path d="M269.65,91.22v1.36H255.4V71.93h13.81v1.36h-12.3v8.14h11v1.33h-11v8.47H269.65z"/>
	<path d="M279.09,73.29h-7.43v-1.36h16.37v1.36h-7.43v19.3h-1.5V73.29z"/>
</g>
</svg>
